<?xml version="1.0" encoding="utf-8"?>
<!-- Generator: Adobe Illustrator 27.9.0, SVG Export Plug-In . SVG Version: 6.00 Build 0)  -->
<svg version="1.1" id="Layer_1" xmlns="http://www.w3.org/2000/svg" xmlns:xlink="http://www.w3.org/1999/xlink" x="0px" y="0px"
	 viewBox="0 0 500 500" style="enable-background:new 0 0 500 500;" xml:space="preserve">
<style type="text/css">
	.st0{clip-path:url(#SVGID_00000011727627775057073770000003908440959652100795_);}
	.st1{clip-path:url(#SVGID_00000092419172577829908730000006549133603480755595_);}
	.st2{fill:#F6AE2D;}
	.st3{clip-path:url(#SVGID_00000119796095147952617630000000493225888923317436_);}
	.st4{clip-path:url(#SVGID_00000114059540705472850670000012022959908004130484_);}
	.st5{fill-rule:evenodd;clip-rule:evenodd;fill:#1D3354;}
	.st6{clip-path:url(#SVGID_00000160879274540434685570000007318300393821394096_);}
	.st7{clip-path:url(#SVGID_00000080201029209051502450000015555994221087751318_);}
	.st8{fill-rule:evenodd;clip-rule:evenodd;fill:#7EA0B7;}
	.st9{fill:#1D3354;}
	.st10{fill:#7EA0B7;}
</style>
<g>
	<defs>
		<rect id="SVGID_1_" x="50" y="191.6" width="93" height="93"/>
	</defs>
	<clipPath id="SVGID_00000052787265189632472600000008316690379725320348_">
		<use xlink:href="#SVGID_1_"  style="overflow:visible;"/>
	</clipPath>
	<g style="clip-path:url(#SVGID_00000052787265189632472600000008316690379725320348_);">
		<g>
			<defs>
				<path id="SVGID_00000013910942706734812260000010935126576772959934_" d="M50,200.6v75.1c0,5,4,9,9,9h75.1c5,0,9-4,9-9v-75.1
					c0-5-4-9-9-9H59C54,191.6,50,195.7,50,200.6z"/>
			</defs>
			<clipPath id="SVGID_00000119099910041481342520000006139850441419693975_">
				<use xlink:href="#SVGID_00000013910942706734812260000010935126576772959934_"  style="overflow:visible;"/>
			</clipPath>
			<g style="clip-path:url(#SVGID_00000119099910041481342520000006139850441419693975_);">
				<path class="st2" d="M138.1,191.6H54.9c-2.7,0-4.9,2.2-4.9,4.9v83.1c0,2.7,2.2,4.9,4.9,4.9h83.1c2.7,0,4.9-2.2,4.9-4.9v-83.1
					C143,193.8,140.8,191.6,138.1,191.6z"/>
			</g>
		</g>
	</g>
</g>
<g>
	<defs>
		<rect id="SVGID_00000085971378767462801040000010536774374567375766_" x="94.7" y="191.6" width="48.3" height="93"/>
	</defs>
	<clipPath id="SVGID_00000111910530211332390390000014333731639733272477_">
		<use xlink:href="#SVGID_00000085971378767462801040000010536774374567375766_"  style="overflow:visible;"/>
	</clipPath>
	<g style="clip-path:url(#SVGID_00000111910530211332390390000014333731639733272477_);">
		<g>
			<defs>
				<path id="SVGID_00000014603772387985560930000014241256826830833582_" d="M50,200.6v75.1c0,5,4,9,9,9h75.1c5,0,9-4,9-9v-75.1
					c0-5-4-9-9-9H59C54,191.6,50,195.7,50,200.6z"/>
			</defs>
			<clipPath id="SVGID_00000156584566720162152670000013454956441678684052_">
				<use xlink:href="#SVGID_00000014603772387985560930000014241256826830833582_"  style="overflow:visible;"/>
			</clipPath>
			<g style="clip-path:url(#SVGID_00000156584566720162152670000013454956441678684052_);">
				<path class="st5" d="M134.8,191.6H94.9l22.8,47.2c0.3,0.6,0.2,1.2-0.1,1.8c-0.4,0.6-1,0.9-1.6,0.9h-2.1c-0.7,0-1.3,0.3-1.6,1
					c-0.3,0.6-0.3,1.3,0,1.9l24.9,39.9c3.3-1,5.8-4.2,5.8-7.9v-76.5C143,195.4,139.3,191.6,134.8,191.6z"/>
			</g>
		</g>
	</g>
</g>
<g>
	<defs>
		<rect id="SVGID_00000091698451689753631910000003704929942181027242_" x="50" y="192" width="87.3" height="92.6"/>
	</defs>
	<clipPath id="SVGID_00000070114874028732174500000001894456031902759342_">
		<use xlink:href="#SVGID_00000091698451689753631910000003704929942181027242_"  style="overflow:visible;"/>
	</clipPath>
	<g style="clip-path:url(#SVGID_00000070114874028732174500000001894456031902759342_);">
		<g>
			<defs>
				<path id="SVGID_00000045597530017743093150000007068379289784329131_" d="M50,200.6v75.1c0,5,4,9,9,9h75.1c5,0,9-4,9-9v-75.1
					c0-5-4-9-9-9H59C54,191.6,50,195.7,50,200.6z"/>
			</defs>
			<clipPath id="SVGID_00000150076644177881898000000003712713581328421772_">
				<use xlink:href="#SVGID_00000045597530017743093150000007068379289784329131_"  style="overflow:visible;"/>
			</clipPath>
			<g style="clip-path:url(#SVGID_00000150076644177881898000000003712713581328421772_);">
				<path class="st8" d="M137.2,284.3L76,228.6c-0.6-0.5-0.8-1.3-0.5-2.1c0.3-0.8,1-1.2,1.8-1.2l7.5,0c0.8,0,1.5-0.5,1.7-1.2
					c0.3-0.8,0.1-1.5-0.5-2.1l-32.2-29c-2.3,1.5-3.8,4-3.8,7v76.5c0,4.5,3.7,8.3,8.3,8.3h76.5C135.6,284.7,136.5,284.6,137.2,284.3z
					"/>
			</g>
		</g>
	</g>
</g>
<g>
	<g transform="translate(113.589518, 179.424759)">
		<g>
			<path class="st9" d="M50.1,60.3c-2.2,0-4.2-0.3-6.3-0.9c-2-0.6-3.6-1.3-4.9-2.3l2.1-4.8c1.2,0.9,2.6,1.6,4.2,2.1
				c1.6,0.5,3.2,0.8,4.8,0.8c1.8,0,3.1-0.3,4-0.8c0.9-0.5,1.3-1.2,1.3-2.1c0-0.7-0.3-1.2-0.8-1.6c-0.5-0.4-1.2-0.8-2-1
				c-0.8-0.3-1.9-0.6-3.2-0.9c-2.1-0.5-3.8-1-5.1-1.5c-1.3-0.5-2.5-1.3-3.4-2.4c-0.9-1.1-1.4-2.6-1.4-4.4c0-1.6,0.4-3,1.3-4.3
				c0.9-1.3,2.2-2.3,3.9-3.1c1.7-0.8,3.9-1.1,6.4-1.1c1.7,0,3.4,0.2,5.1,0.6c1.7,0.4,3.1,1,4.4,1.8l-2,4.8c-2.5-1.4-5-2.1-7.6-2.1
				c-1.8,0-3.1,0.3-3.9,0.9c-0.8,0.6-1.3,1.3-1.3,2.2c0,0.9,0.5,1.6,1.5,2.1c1,0.4,2.5,0.9,4.5,1.3c2.1,0.5,3.8,1,5.1,1.5
				c1.3,0.5,2.5,1.3,3.4,2.3c1,1.1,1.4,2.5,1.4,4.3c0,1.6-0.4,3-1.3,4.3c-0.9,1.3-2.2,2.3-3.9,3C54.7,59.9,52.6,60.3,50.1,60.3z"/>
		</g>
	</g>
</g>
<g>
	<g transform="translate(138.04253, 179.424759)">
		<g>
			<path class="st9" d="M59.2,49.1l-3.7,3.8v6.9h-6.3V32.5h6.3v12.8l12.1-12.8h7L63.3,44.7l12,15.1h-7.4L59.2,49.1z"/>
		</g>
	</g>
</g>
<g>
	<g transform="translate(165.479052, 179.424759)">
		<g>
			<path class="st9" d="M71.5,50.1v9.7h-6.3v-9.8L54.6,32.5h6.7l7.3,12.1l7.3-12.1h6.2L71.5,50.1z"/>
		</g>
	</g>
</g>
<g>
	<g transform="translate(191.043572, 179.424759)">
		<g>
			<path class="st9" d="M87,45.6c1.6,0.5,2.8,1.3,3.6,2.5c0.9,1.2,1.3,2.6,1.3,4.2c0,2.4-0.9,4.2-2.8,5.5c-1.8,1.3-4.6,1.9-8.1,1.9
				H66.9V32.5h13.4c3.3,0,5.9,0.6,7.6,1.9c1.8,1.3,2.7,3,2.7,5.2c0,1.3-0.3,2.5-1,3.6C89,44.2,88.1,45,87,45.6z M73.2,37.3v6.4h6.3
				c1.6,0,2.7-0.3,3.5-0.8c0.8-0.6,1.2-1.4,1.2-2.4c0-1.1-0.4-1.8-1.2-2.4c-0.8-0.5-2-0.8-3.5-0.8H73.2z M80.6,55.1
				c1.7,0,2.9-0.3,3.8-0.8c0.8-0.6,1.3-1.4,1.3-2.5c0-2.3-1.7-3.4-5-3.4h-7.4v6.8H80.6z"/>
		</g>
	</g>
</g>
<g>
	<g transform="translate(219.211337, 179.424759)">
		<g>
			<path class="st9" d="M89.5,60.3c-2.8,0-5.4-0.6-7.7-1.8c-2.3-1.2-4.1-2.9-5.4-5c-1.3-2.1-1.9-4.5-1.9-7.2c0-2.7,0.6-5.1,1.9-7.2
				c1.3-2.2,3.1-3.8,5.4-5.1c2.3-1.2,4.8-1.8,7.7-1.8c2.8,0,5.4,0.6,7.6,1.8c2.3,1.2,4,2.9,5.3,5.1c1.3,2.1,2,4.6,2,7.2
				c0,2.7-0.7,5.1-2,7.2c-1.3,2.1-3.1,3.8-5.3,5C94.9,59.7,92.4,60.3,89.5,60.3z M89.5,54.9c1.6,0,3.1-0.4,4.4-1.1
				c1.3-0.8,2.3-1.8,3.1-3.1c0.8-1.3,1.1-2.8,1.1-4.5c0-1.7-0.4-3.2-1.1-4.5c-0.7-1.3-1.8-2.4-3.1-3.1c-1.3-0.8-2.7-1.1-4.4-1.1
				c-1.6,0-3.1,0.4-4.4,1.1c-1.3,0.7-2.3,1.8-3.1,3.1C81.4,43,81,44.5,81,46.2c0,1.7,0.4,3.2,1.1,4.5c0.8,1.3,1.8,2.4,3.1,3.1
				C86.5,54.5,87.9,54.9,89.5,54.9z"/>
		</g>
	</g>
</g>
<g>
	<g transform="translate(249.689858, 179.424759)">
		<g>
			<path class="st9" d="M86.5,32.5h6.3v22.1h13.7v5.1h-20V32.5z"/>
		</g>
	</g>
</g>
<g>
	<g transform="translate(273.148368, 179.424759)">
		<g>
			<path class="st9" d="M99.9,37.7h-8.8v-5.1H115v5.1h-8.7v22.1h-6.3V37.7z"/>
		</g>
	</g>
</g>
<g>
	<g transform="translate(113.589518, 198.913552)">
		<g>
			<path class="st10" d="M47,66.5c-1.6,0-3.1-0.2-4.5-0.7c-1.4-0.5-2.6-1.1-3.4-1.9l1.1-2.3c0.8,0.7,1.8,1.3,3,1.7
				c1.2,0.4,2.5,0.7,3.8,0.7c1.7,0,3-0.3,3.8-0.9c0.8-0.6,1.3-1.4,1.3-2.3c0-0.7-0.2-1.3-0.7-1.7c-0.5-0.4-1-0.8-1.7-1
				c-0.7-0.2-1.6-0.5-2.9-0.8c-1.6-0.4-2.8-0.8-3.8-1.1c-0.9-0.4-1.8-0.9-2.4-1.7c-0.7-0.8-1-1.8-1-3.1c0-1.1,0.3-2.1,0.9-3
				c0.6-0.9,1.5-1.6,2.6-2.1c1.2-0.5,2.6-0.8,4.4-0.8c1.2,0,2.4,0.2,3.6,0.5c1.2,0.3,2.2,0.8,3,1.4l-1,2.4c-0.9-0.6-1.8-1-2.8-1.2
				c-1-0.3-2-0.4-2.9-0.4c-1.7,0-2.9,0.3-3.8,0.9c-0.8,0.6-1.2,1.4-1.2,2.4c0,0.7,0.2,1.3,0.7,1.8c0.5,0.4,1.1,0.8,1.8,1
				c0.7,0.2,1.7,0.5,2.9,0.8c1.6,0.4,2.8,0.7,3.8,1.1c0.9,0.4,1.8,1,2.4,1.7c0.7,0.8,1,1.8,1,3.1c0,1.1-0.3,2.1-0.9,3
				c-0.6,0.9-1.5,1.6-2.7,2.1C50.2,66.3,48.7,66.5,47,66.5z"/>
		</g>
	</g>
</g>
<g>
	<g transform="translate(137.082293, 198.913552)">
		<g>
			<path class="st10" d="M58.1,66.5c-2.1,0-4-0.4-5.7-1.4c-1.7-0.9-3-2.2-3.9-3.8c-0.9-1.6-1.4-3.4-1.4-5.4c0-2,0.5-3.8,1.4-5.4
				c1-1.6,2.3-2.9,3.9-3.8c1.7-0.9,3.6-1.4,5.7-1.4c2.1,0,3.9,0.5,5.6,1.4c1.7,0.9,3,2.2,3.9,3.8c0.9,1.6,1.4,3.4,1.4,5.4
				c0,2-0.5,3.8-1.4,5.4c-0.9,1.6-2.3,2.9-3.9,3.8C62,66.1,60.2,66.5,58.1,66.5z M58.1,63.9c1.5,0,2.9-0.3,4.1-1
				c1.2-0.7,2.2-1.6,2.9-2.9c0.7-1.2,1.1-2.6,1.1-4.1s-0.4-2.9-1.1-4.1c-0.7-1.2-1.6-2.2-2.9-2.8c-1.2-0.7-2.6-1-4.1-1
				c-1.5,0-2.9,0.3-4.1,1c-1.2,0.7-2.2,1.6-2.9,2.8c-0.7,1.2-1,2.6-1,4.1s0.3,2.9,1,4.1c0.7,1.2,1.7,2.2,2.9,2.9
				C55.2,63.6,56.6,63.9,58.1,63.9z"/>
		</g>
	</g>
</g>
<g>
	<g transform="translate(165.423035, 198.913552)">
		<g>
			<path class="st10" d="M58.2,45.6h2.9v18.1h11.2v2.6H58.2V45.6z"/>
		</g>
	</g>
</g>
<g>
	<g transform="translate(188.318118, 198.913552)">
		<g>
			<path class="st10" d="M74.4,66.5c-2.8,0-4.9-0.8-6.5-2.4c-1.5-1.6-2.3-3.8-2.3-6.8V45.6h3v11.6c0,4.4,1.9,6.6,5.8,6.6
				c1.9,0,3.3-0.5,4.3-1.6c1-1.1,1.5-2.8,1.5-5V45.6h2.9v11.8c0,3-0.8,5.2-2.3,6.8C79.3,65.8,77.2,66.5,74.4,66.5z"/>
		</g>
	</g>
</g>
<g>
	<g transform="translate(215.574155, 198.913552)">
		<g>
			<path class="st10" d="M79.1,48.2H72v-2.6h17.1v2.6H82v18.1h-2.9V48.2z"/>
		</g>
	</g>
</g>
<g>
	<g transform="translate(238.314285, 198.913552)">
		<g>
			<path class="st10" d="M82.5,45.6h2.9v20.7h-2.9V45.6z"/>
		</g>
	</g>
</g>
<g>
	<g transform="translate(254.922522, 198.913552)">
		<g>
			<path class="st10" d="M97.4,66.5c-2.1,0-4-0.4-5.7-1.4c-1.7-0.9-3-2.2-3.9-3.8c-0.9-1.6-1.4-3.4-1.4-5.4c0-2,0.5-3.8,1.4-5.4
				c1-1.6,2.3-2.9,3.9-3.8c1.7-0.9,3.6-1.4,5.7-1.4c2.1,0,3.9,0.5,5.6,1.4c1.7,0.9,3,2.2,3.9,3.8c0.9,1.6,1.4,3.4,1.4,5.4
				c0,2-0.5,3.8-1.4,5.4c-0.9,1.6-2.3,2.9-3.9,3.8C101.3,66.1,99.5,66.5,97.4,66.5z M97.4,63.9c1.5,0,2.9-0.3,4.1-1
				c1.2-0.7,2.2-1.6,2.9-2.9c0.7-1.2,1.1-2.6,1.1-4.1s-0.4-2.9-1.1-4.1c-0.7-1.2-1.6-2.2-2.9-2.8c-1.2-0.7-2.6-1-4.1-1
				c-1.5,0-2.9,0.3-4.1,1c-1.2,0.7-2.2,1.6-2.9,2.8c-0.7,1.2-1,2.6-1,4.1s0.3,2.9,1,4.1c0.7,1.2,1.7,2.2,2.9,2.9
				C94.5,63.6,95.9,63.9,97.4,63.9z"/>
		</g>
	</g>
</g>
<g>
	<g transform="translate(283.263264, 198.913552)">
		<g>
			<path class="st10" d="M115.3,45.6v20.7h-2.4l-12.4-15.4v15.4h-2.9V45.6h2.4l12.4,15.4V45.6H115.3z"/>
		</g>
	</g>
</g>
<g>
	<g transform="translate(310.98416, 198.913552)">
		<g>
			<path class="st10" d="M112.8,66.5c-1.6,0-3.1-0.2-4.5-0.7c-1.4-0.5-2.6-1.1-3.4-1.9l1.1-2.3c0.8,0.7,1.8,1.3,3,1.7
				c1.2,0.4,2.5,0.7,3.8,0.7c1.7,0,3-0.3,3.8-0.9c0.8-0.6,1.3-1.4,1.3-2.3c0-0.7-0.2-1.3-0.7-1.7c-0.5-0.4-1-0.8-1.7-1
				c-0.7-0.2-1.6-0.5-2.9-0.8c-1.6-0.4-2.8-0.8-3.8-1.1c-0.9-0.4-1.8-0.9-2.4-1.7c-0.7-0.8-1-1.8-1-3.1c0-1.1,0.3-2.1,0.9-3
				c0.6-0.9,1.5-1.6,2.6-2.1c1.2-0.5,2.6-0.8,4.4-0.8c1.2,0,2.4,0.2,3.6,0.5c1.2,0.3,2.2,0.8,3,1.4l-1,2.4c-0.9-0.6-1.8-1-2.8-1.2
				c-1-0.3-2-0.4-2.9-0.4c-1.7,0-2.9,0.3-3.8,0.9c-0.8,0.6-1.2,1.4-1.2,2.4c0,0.7,0.2,1.3,0.7,1.8c0.5,0.4,1.1,0.8,1.8,1
				c0.7,0.2,1.7,0.5,2.9,0.8c1.6,0.4,2.8,0.7,3.8,1.1c0.9,0.4,1.8,1,2.4,1.7c0.7,0.8,1,1.8,1,3.1c0,1.1-0.3,2.1-0.9,3
				c-0.6,0.9-1.5,1.6-2.7,2.1C116,66.3,114.5,66.5,112.8,66.5z"/>
		</g>
	</g>
</g>
</svg>
